<svg width="29" height="32" viewBox="0 0 29 32" fill="none" xmlns="http://www.w3.org/2000/svg">
<path d="M9.33333 13.5L12.6667 16.8333L20.1667 9.33333M27.6667 31V9C27.6667 6.19974 27.6667 4.79961 27.1217 3.73005C26.6423 2.78924 25.8774 2.02433 24.9366 1.54497C23.8671 1 22.4669 1 19.6667 1H9C6.19974 1 4.79961 1 3.73005 1.54497C2.78924 2.02433 2.02433 2.78924 1.54497 3.73005C1 4.79961 1 6.19974 1 9V31L5.58333 27.6667L9.75 31L14.3333 27.6667L18.9167 31L23.0833 27.6667L27.6667 31Z" stroke="black" stroke-linecap="round" stroke-linejoin="round"/>
</svg>
