<svg width="30" height="30" viewBox="0 0 30 30" fill="none" xmlns="http://www.w3.org/2000/svg">
<rect x="0.35" y="0.35" width="29.3" height="29.3" rx="5.65" stroke="black" stroke-width="0.7"/>
<path d="M12.4999 13.6608L14.2856 15.4465L18.3035 11.4286M22.3214 23.0358V11.2501C22.3214 9.74993 22.3214 8.99986 22.0294 8.42688C21.7726 7.92288 21.3628 7.51311 20.8588 7.2563C20.2859 6.96436 19.5358 6.96436 18.0356 6.96436H12.3214C10.8212 6.96436 10.0711 6.96436 9.49817 7.2563C8.99416 7.51311 8.5844 7.92288 8.32759 8.42688C8.03564 8.99986 8.03564 9.74993 8.03564 11.2501V23.0358L10.491 21.2501L12.7231 23.0358L15.1785 21.2501L17.6339 23.0358L19.866 21.2501L22.3214 23.0358Z" stroke="black" stroke-width="0.7" stroke-linecap="round" stroke-linejoin="round"/>
</svg>
