<svg width="26" height="16" viewBox="0 0 26 16" fill="none" xmlns="http://www.w3.org/2000/svg">
<path d="M19.5 0C20.76 0 21.85 0.25 22.77 0.749999C23.71 1.23 24.44 1.97 24.96 2.97C25.48 3.95 25.74 5.17 25.74 6.63V15.78H24.24V6.75C24.24 4.99 23.81 3.65 22.95 2.73C22.09 1.81 20.89 1.35 19.35 1.35C18.17 1.35 17.15 1.6 16.29 2.1C15.43 2.6 14.77 3.3 14.31 4.2C13.85 5.1 13.62 6.18 13.62 7.44V15.78H12.12V6.75C12.12 4.99 11.69 3.65 10.83 2.73C9.97 1.81 8.77 1.35 7.23 1.35C6.05 1.35 5.03 1.6 4.17 2.1C3.31 2.6 2.65 3.3 2.19 4.2C1.73 5.1 1.5 6.18 1.5 7.44V15.78H0V0.12H1.44V4.44L1.23 3.96C1.69 2.74 2.46 1.78 3.54 1.08C4.62 0.36 5.92 0 7.44 0C9 0 10.31 0.4 11.37 1.2C12.45 1.98 13.13 3.15 13.41 4.71L12.9 4.5C13.32 3.16 14.11 2.08 15.27 1.26C16.43 0.42 17.84 0 19.5 0Z" fill="black"/>
</svg>
