<svg width="56" height="56" viewBox="0 0 56 56" fill="none" xmlns="http://www.w3.org/2000/svg">
<rect x="0.5" y="0.5" width="55" height="55" rx="5.5" stroke="black"/>
<path d="M34.5 20C35.76 20 36.85 20.25 37.77 20.75C38.71 21.23 39.44 21.97 39.96 22.97C40.48 23.95 40.74 25.17 40.74 26.63V35.78H39.24V26.75C39.24 24.99 38.81 23.65 37.95 22.73C37.09 21.81 35.89 21.35 34.35 21.35C33.17 21.35 32.15 21.6 31.29 22.1C30.43 22.6 29.77 23.3 29.31 24.2C28.85 25.1 28.62 26.18 28.62 27.44V35.78H27.12V26.75C27.12 24.99 26.69 23.65 25.83 22.73C24.97 21.81 23.77 21.35 22.23 21.35C21.05 21.35 20.03 21.6 19.17 22.1C18.31 22.6 17.65 23.3 17.19 24.2C16.73 25.1 16.5 26.18 16.5 27.44V35.78H15V20.12H16.44V24.44L16.23 23.96C16.69 22.74 17.46 21.78 18.54 21.08C19.62 20.36 20.92 20 22.44 20C24 20 25.31 20.4 26.37 21.2C27.45 21.98 28.13 23.15 28.41 24.71L27.9 24.5C28.32 23.16 29.11 22.08 30.27 21.26C31.43 20.42 32.84 20 34.5 20Z" fill="black"/>
</svg>
