<svg width="56" height="56" viewBox="0 0 56 56" fill="none" xmlns="http://www.w3.org/2000/svg">
<rect x="0.5" y="0.5" width="55" height="55" rx="5.5" stroke="black"/>
<path d="M28.27 35.9C26.97 35.9 25.75 35.71 24.61 35.33C23.49 34.95 22.62 34.47 22 33.89L22.69 32.69C23.29 33.21 24.09 33.66 25.09 34.04C26.09 34.4 27.17 34.58 28.33 34.58C29.97 34.58 31.15 34.31 31.87 33.77C32.59 33.23 32.95 32.52 32.95 31.64C32.95 31 32.76 30.5 32.38 30.14C32.02 29.76 31.53 29.47 30.91 29.27C30.29 29.07 29.61 28.91 28.87 28.79C28.13 28.65 27.39 28.5 26.65 28.34C25.91 28.18 25.23 27.95 24.61 27.65C23.99 27.35 23.49 26.94 23.11 26.42C22.75 25.88 22.57 25.17 22.57 24.29C22.57 23.49 22.79 22.77 23.23 22.13C23.67 21.49 24.33 20.98 25.21 20.6C26.09 20.2 27.19 20 28.51 20C29.49 20 30.47 20.14 31.45 20.42C32.45 20.7 33.26 21.07 33.88 21.53L33.19 22.73C32.53 22.23 31.79 21.87 30.97 21.65C30.15 21.43 29.32 21.32 28.48 21.32C26.96 21.32 25.84 21.6 25.12 22.16C24.42 22.72 24.07 23.42 24.07 24.26C24.07 24.92 24.25 25.45 24.61 25.85C24.99 26.23 25.49 26.53 26.11 26.75C26.73 26.95 27.41 27.12 28.15 27.26C28.89 27.38 29.63 27.52 30.37 27.68C31.11 27.84 31.79 28.07 32.41 28.37C33.03 28.65 33.52 29.05 33.88 29.57C34.26 30.07 34.45 30.75 34.45 31.61C34.45 32.47 34.21 33.22 33.73 33.86C33.27 34.5 32.58 35 31.66 35.36C30.74 35.72 29.61 35.9 28.27 35.9Z" fill="black"/>
</svg>
