<svg width="13" height="16" viewBox="0 0 13 16" fill="none" xmlns="http://www.w3.org/2000/svg">
<path d="M6.27 15.9C4.97 15.9 3.75 15.71 2.61 15.33C1.49 14.95 0.62 14.47 0 13.89L0.69 12.69C1.29 13.21 2.09 13.66 3.09 14.04C4.09 14.4 5.17 14.58 6.33 14.58C7.97 14.58 9.15 14.31 9.87 13.77C10.59 13.23 10.95 12.52 10.95 11.64C10.95 11 10.76 10.5 10.38 10.14C10.02 9.76 9.53 9.47 8.91 9.27C8.29 9.07 7.61 8.91 6.87 8.79C6.13 8.65 5.39 8.5 4.65 8.34C3.91 8.18 3.23 7.95 2.61 7.65C1.99 7.35 1.49 6.94 1.11 6.42C0.75 5.88 0.57 5.17 0.57 4.29C0.57 3.49 0.79 2.77 1.23 2.13C1.67 1.49 2.33 0.98 3.21 0.599999C4.09 0.2 5.19 0 6.51 0C7.49 0 8.47 0.14 9.45 0.42C10.45 0.7 11.26 1.07 11.88 1.53L11.19 2.73C10.53 2.23 9.79 1.87 8.97 1.65C8.15 1.43 7.32 1.32 6.48 1.32C4.96 1.32 3.84 1.6 3.12 2.16C2.42 2.72 2.07 3.42 2.07 4.26C2.07 4.92 2.25 5.45 2.61 5.85C2.99 6.23 3.49 6.53 4.11 6.75C4.73 6.95 5.41 7.12 6.15 7.26C6.89 7.38 7.63 7.52 8.37 7.68C9.11 7.84 9.79 8.07 10.41 8.37C11.03 8.65 11.52 9.05 11.88 9.57C12.26 10.07 12.45 10.75 12.45 11.61C12.45 12.47 12.21 13.22 11.73 13.86C11.27 14.5 10.58 15 9.66 15.36C8.74 15.72 7.61 15.9 6.27 15.9Z" fill="black"/>
</svg>
