<svg width="30" height="30" viewBox="0 0 30 30" fill="none" xmlns="http://www.w3.org/2000/svg">
<rect x="0.35" y="0.35" width="29.3" height="29.3" rx="5.65" stroke="black" stroke-width="0.7"/>
<path d="M14.5325 21C13.5928 21 12.7108 20.8566 11.8867 20.5698C11.0771 20.283 10.4482 19.9208 10 19.483L10.4988 18.5774C10.9325 18.9698 11.5108 19.3094 12.2337 19.5962C12.9566 19.8679 13.7373 20.0038 14.5759 20.0038C15.7614 20.0038 16.6145 19.8 17.1349 19.3925C17.6554 18.9849 17.9157 18.4491 17.9157 17.7849C17.9157 17.3019 17.7783 16.9245 17.5036 16.6528C17.2434 16.366 16.8892 16.1472 16.441 15.9962C15.9928 15.8453 15.5012 15.7245 14.9663 15.634C14.4313 15.5283 13.8964 15.4151 13.3614 15.2943C12.8265 15.1736 12.3349 15 11.8867 14.7736C11.4386 14.5472 11.0771 14.2377 10.8024 13.8453C10.5422 13.4377 10.412 12.9019 10.412 12.2377C10.412 11.634 10.5711 11.0906 10.8892 10.6075C11.2072 10.1245 11.6843 9.73962 12.3205 9.45283C12.9566 9.15094 13.7518 9 14.706 9C15.4145 9 16.1229 9.10566 16.8313 9.31698C17.5542 9.5283 18.1398 9.80755 18.588 10.1547L18.0892 11.0604C17.612 10.683 17.0771 10.4113 16.4843 10.2453C15.8916 10.0792 15.2916 9.99623 14.6843 9.99623C13.5855 9.99623 12.7759 10.2075 12.2554 10.6302C11.7494 11.0528 11.4964 11.5811 11.4964 12.2151C11.4964 12.7132 11.6265 13.1132 11.8867 13.4151C12.1614 13.7019 12.5229 13.9283 12.9711 14.0943C13.4193 14.2453 13.9108 14.3736 14.4458 14.4792C14.9807 14.5698 15.5157 14.6755 16.0506 14.7962C16.5855 14.917 17.0771 15.0906 17.5253 15.317C17.9735 15.5283 18.3277 15.8302 18.588 16.2226C18.8627 16.6 19 17.1132 19 17.7623C19 18.4113 18.8265 18.9774 18.4795 19.4604C18.147 19.9434 17.6482 20.3208 16.9831 20.5925C16.3181 20.8642 15.5012 21 14.5325 21Z" fill="black"/>
</svg>
