<svg width="30" height="30" viewBox="0 0 30 30" fill="none" xmlns="http://www.w3.org/2000/svg">
<rect x="0.35" y="0.35" width="29.3" height="29.3" rx="5.65" stroke="black" stroke-width="0.7"/>
<path d="M20.1515 9C21.1305 9 21.9775 9.19011 22.6923 9.57034C23.4227 9.93536 23.9899 10.4981 24.3939 11.2586C24.798 12.0038 25 12.9316 25 14.0418V21H23.8345V14.1331C23.8345 12.7947 23.5004 11.7757 22.8322 11.076C22.1639 10.3764 21.2315 10.0266 20.035 10.0266C19.1181 10.0266 18.3256 10.2167 17.6573 10.597C16.9891 10.9772 16.4763 11.5095 16.1189 12.1939C15.7615 12.8783 15.5827 13.6996 15.5827 14.6578V21H14.4172V14.1331C14.4172 12.7947 14.0831 11.7757 13.4149 11.076C12.7467 10.3764 11.8143 10.0266 10.6177 10.0266C9.70085 10.0266 8.90831 10.2167 8.24009 10.597C7.57187 10.9772 7.05905 11.5095 6.70163 12.1939C6.34421 12.8783 6.1655 13.6996 6.1655 14.6578V21H5V9.09125H6.11888V12.3764L5.95571 12.0114C6.31313 11.0837 6.91142 10.3536 7.75058 9.82129C8.58974 9.27376 9.59984 9 10.7809 9C11.993 9 13.0109 9.30418 13.8345 9.91255C14.6737 10.5057 15.202 11.3954 15.4196 12.5817L15.0233 12.4221C15.3497 11.403 15.9635 10.5817 16.8648 9.95817C17.7661 9.31939 18.8617 9 20.1515 9Z" fill="black"/>
</svg>
