<svg width="1246" height="663" viewBox="0 0 1246 663" fill="none" xmlns="http://www.w3.org/2000/svg">
<path d="M0 5.33969e-07H69.0625V186.469H0V5.33969e-07Z" fill="#D9D9D9"/>
<path d="M13.8125 69.0625L13.8125 1.11416e-05L193.375 3.29268e-06V69.0625L13.8125 69.0625Z" fill="#D9D9D9"/>
<path d="M124.312 0L193.375 3.29268e-06V248.625H124.312V0Z" fill="#D9D9D9"/>
<path d="M0 663H69.0625V476.531H0V663Z" fill="#D9D9D9"/>
<path d="M13.8125 593.937L13.8125 663H193.375V593.937H13.8125Z" fill="#D9D9D9"/>
<path d="M124.312 663H193.375V359.125H124.312V663Z" fill="#D9D9D9"/>
<path d="M55.25 269.344H124.312V338.406H55.25V269.344Z" fill="#D9D9D9"/>
<path d="M124.312 248.625H193.375L158.844 303.875H89.7812L124.312 248.625Z" fill="#D9D9D9"/>
<path d="M158.844 303.875H89.7812L124.312 359.125H193.375L158.844 303.875Z" fill="#D9D9D9"/>
<path d="M1077.37 0H1146.44V186.469H1077.37V0Z" fill="#D9D9D9"/>
<path d="M1091.19 69.0625V1.11416e-05L1270.75 3.29268e-06V69.0625L1091.19 69.0625Z" fill="#D9D9D9"/>
<path d="M1201.69 0L1270.75 3.29268e-06L1270.75 248.625H1201.69V0Z" fill="#D9D9D9"/>
<path d="M1077.37 663H1146.44V476.531H1077.37V663Z" fill="#D9D9D9"/>
<path d="M1091.19 593.937V663H1270.75V593.937H1091.19Z" fill="#D9D9D9"/>
<path d="M1201.69 663H1270.75V359.125H1201.69V663Z" fill="#D9D9D9"/>
<path d="M1132.62 269.344H1201.69V338.406H1132.62V269.344Z" fill="#D9D9D9"/>
<path d="M1201.69 248.625H1270.75L1236.22 303.875H1167.16L1201.69 248.625Z" fill="#D9D9D9"/>
<path d="M1236.22 303.875H1167.16L1201.69 359.125H1270.75L1236.22 303.875Z" fill="#D9D9D9"/>
<path d="M663 331.5H725.156V663H663V331.5Z" fill="#D9D9D9"/>
<path d="M559.406 524.875V462.719H704.437V524.875H559.406Z" fill="#D9D9D9"/>
<path d="M607.75 214.094H673.359L593.937 524.875H524.875L607.75 214.094Z" fill="#D9D9D9"/>
<path d="M653.447 0H719.056L705.244 48.3437H639.634L653.447 0Z" fill="#D9D9D9"/>
<path d="M269.344 290.062H483.437V345.312H269.344V290.062Z" fill="#D9D9D9"/>
<path d="M808.031 290.062H1022.12V345.312H808.031V290.062Z" fill="#D9D9D9"/>
<path d="M321.073 116.869H309.802V114.327C309.802 111.749 309.176 109.539 307.923 107.697C306.745 105.782 304.719 104.824 301.846 104.824C300.299 104.824 299.047 105.119 298.089 105.708C297.131 106.298 296.358 107.034 295.768 107.918C295.179 108.876 294.774 109.981 294.553 111.233C294.332 112.412 294.221 113.664 294.221 114.99C294.221 116.537 294.258 117.826 294.332 118.858C294.479 119.889 294.774 120.81 295.216 121.62C295.658 122.431 296.284 123.13 297.094 123.72C297.978 124.309 299.157 124.898 300.63 125.488L309.249 128.913C311.754 129.871 313.78 131.013 315.327 132.339C316.874 133.591 318.089 135.064 318.973 136.759C319.784 138.527 320.336 140.553 320.631 142.836C320.926 145.046 321.073 147.588 321.073 150.461C321.073 153.776 320.741 156.87 320.078 159.743C319.415 162.542 318.347 164.936 316.874 166.925C315.327 168.988 313.301 170.609 310.796 171.787C308.292 172.966 305.235 173.555 301.625 173.555C298.899 173.555 296.358 173.076 294 172.119C291.643 171.161 289.617 169.835 287.923 168.141C286.229 166.446 284.866 164.494 283.834 162.284C282.877 160.001 282.398 157.533 282.398 154.881V150.682H293.669V154.218C293.669 156.28 294.258 158.159 295.437 159.853C296.689 161.474 298.752 162.284 301.625 162.284C303.54 162.284 305.014 162.026 306.045 161.511C307.15 160.921 307.997 160.111 308.586 159.08C309.176 158.048 309.507 156.833 309.581 155.433C309.728 153.96 309.802 152.339 309.802 150.571C309.802 148.509 309.728 146.814 309.581 145.488C309.434 144.162 309.139 143.094 308.697 142.284C308.181 141.473 307.481 140.81 306.597 140.295C305.787 139.779 304.682 139.227 303.282 138.637L295.216 135.322C290.354 133.333 287.076 130.718 285.381 127.477C283.761 124.162 282.95 120.036 282.95 115.101C282.95 112.154 283.356 109.355 284.166 106.703C284.976 104.051 286.192 101.767 287.812 99.8517C289.359 97.9364 291.312 96.4262 293.669 95.3212C296.1 94.1425 298.973 93.5532 302.288 93.5532C305.087 93.5532 307.629 94.0689 309.912 95.1002C312.27 96.1315 314.296 97.4944 315.99 99.1887C319.379 102.725 321.073 106.776 321.073 111.344V116.869Z" fill="#D9D9D9"/>
<path d="M367.289 172.892V104.824H354.25V94.2162H391.599V104.824H378.56V172.892H367.289Z" fill="#D9D9D9"/>
<path d="M438.234 104.824V129.355H444.643C446.632 129.355 448.216 129.097 449.394 128.582C450.573 127.992 451.494 127.182 452.157 126.151C452.746 125.119 453.151 123.867 453.372 122.394C453.593 120.847 453.704 119.079 453.704 117.09C453.704 115.101 453.593 113.37 453.372 111.896C453.151 110.349 452.709 109.023 452.046 107.918C450.647 105.856 447.995 104.824 444.09 104.824H438.234ZM426.963 172.892V94.2162H445.085C458.345 94.2162 464.975 101.914 464.975 117.311C464.975 121.952 464.238 125.893 462.765 129.134C461.365 132.376 458.861 134.991 455.251 136.98L467.406 172.892H455.472L444.974 139.3H438.234V172.892H426.963Z" fill="#D9D9D9"/>
<path d="M504.399 172.892V94.2162H537.991V104.824H515.67V127.919H535.118V138.527H515.67V161.621H537.991V172.892H504.399Z" fill="#D9D9D9"/>
<path d="M575.685 172.892V94.2162H609.277V104.824H586.956V127.919H606.404V138.527H586.956V161.621H609.277V172.892H575.685Z" fill="#D9D9D9"/>
<path d="M654.374 172.892V104.824H641.335V94.2162H678.684V104.824H665.645V172.892H654.374Z" fill="#D9D9D9"/>
<path d="M772.502 94.2162L760.789 172.892H750.181L741.562 121.841H741.341L732.832 172.892H722.224L710.511 94.2162H722.445L728.081 144.162H728.302L737.142 94.2162H745.761L754.932 145.378H755.153L760.568 94.2162H772.502Z" fill="#D9D9D9"/>
<path d="M809.936 172.892V94.2162H843.528V104.824H821.207V127.919H840.655V138.527H821.207V161.621H843.528V172.892H809.936Z" fill="#D9D9D9"/>
<path d="M903.984 145.378L898.459 116.869H898.238L892.713 145.378H903.984ZM876.138 172.892L893.708 94.2162H903.1L920.67 172.892H909.399L906.084 155.986H890.724L887.409 172.892H876.138Z" fill="#D9D9D9"/>
<path d="M967.879 104.824V129.355H974.288C976.277 129.355 977.86 129.097 979.039 128.582C980.218 127.992 981.139 127.182 981.802 126.151C982.391 125.119 982.796 123.867 983.017 122.394C983.238 120.847 983.349 119.079 983.349 117.09C983.349 115.101 983.238 113.37 983.017 111.896C982.796 110.349 982.354 109.023 981.691 107.918C980.291 105.856 977.639 104.824 973.735 104.824H967.879ZM956.608 172.892V94.2162H974.729C987.989 94.2162 994.62 101.914 994.62 117.311C994.62 121.952 993.883 125.893 992.409 129.134C991.01 132.376 988.505 134.991 984.895 136.98L997.05 172.892H985.116L974.619 139.3H967.879V172.892H956.608Z" fill="#D9D9D9"/>
</svg>
